<?xml version="1.0" encoding="UTF-8" standalone="no"?>
<svg
   xmlns:dc="http://purl.org/dc/elements/1.1/"
   xmlns:cc="http://creativecommons.org/ns#"
   xmlns:rdf="http://www.w3.org/1999/02/22-rdf-syntax-ns#"
   xmlns:svg="http://www.w3.org/2000/svg"
   xmlns="http://www.w3.org/2000/svg"
   xmlns:sodipodi="http://sodipodi.sourceforge.net/DTD/sodipodi-0.dtd"
   xmlns:inkscape="http://www.inkscape.org/namespaces/inkscape"
   width="1000.1033"
   height="217.52992"
   viewBox="0 0 264.61062 57.55479"
   version="1.1"
   id="svg8"
   inkscape:version="1.0.2 (e86c870879, 2021-01-15, custom)"
   sodipodi:docname="Tiket.com (2017).svg">
  <defs
     id="defs2" />
  <sodipodi:namedview
     id="base"
     pagecolor="#ffffff"
     bordercolor="#666666"
     borderopacity="1.0"
     inkscape:pageopacity="0.0"
     inkscape:pageshadow="2"
     inkscape:zoom="0.70710678"
     inkscape:cx="373.09189"
     inkscape:cy="178.47701"
     inkscape:document-units="mm"
     inkscape:current-layer="g220"
     inkscape:document-rotation="0"
     showgrid="false"
     units="px"
     inkscape:window-width="1366"
     inkscape:window-height="715"
     inkscape:window-x="-8"
     inkscape:window-y="-8"
     inkscape:window-maximized="1" />
  <metadata
     id="metadata5">
    <rdf:RDF>
      <cc:Work
         rdf:about="">
        <dc:format>image/svg+xml</dc:format>
        <dc:type
           rdf:resource="http://purl.org/dc/dcmitype/StillImage" />
        <dc:title></dc:title>
      </cc:Work>
    </rdf:RDF>
  </metadata>
  <g
     inkscape:label="Layer 1"
     inkscape:groupmode="layer"
     id="layer1"
     transform="translate(-158.75937,-99.813644)">
    <g
       id="Layer1001"
       transform="matrix(0.26458333,0,0,0.26458333,142.7125,41.034314)">
      <g
         id="g220"
         transform="matrix(3.934196,0,0,3.934196,112.40182,-98.408625)">
        <g
           id="Layer1005"
           transform="matrix(1.2743284,0,0,1.2743284,-66.663715,-96.214923)">
          <path
             d="m 148.3345,182.6109 c 2.1885,-0.3119 4.1808,-0.9159 6.1501,-1.8096 1.7177,-0.7795 3.4366,-1.9446 4.8279,-3.1176 1.4089,-1.1877 2.7029,-2.6563 3.786,-4.1662 4.1813,-5.8291 5.1142,-14.3893 2.1058,-20.98 -2.2683,-4.9691 -5.417,-8.3082 -10.4055,-10.8894 -1.1052,-0.5719 -2.4655,-1.0864 -3.8072,-1.451 -0.7411,-0.2014 -1.4591,-0.353 -2.2046,-0.4716 -2.3667,-0.3763 -4.644,-0.3752 -7.0104,10e-5 -2.0692,0.3282 -4.205,0.9892 -6.0132,1.9227 -2.9841,1.5405 -4.8281,2.988 -6.8226,5.1722 -5.5279,6.054 -6.8376,15.8081 -3.4287,23.2617 0.6951,1.5199 2.5415,4.6207 3.7394,5.6847 0.3126,0.2776 0.3437,0.3223 0.6097,0.6118 1.4544,1.583 3.7822,3.2844 6.2141,4.4272 1.86,0.8741 4.0679,1.5105 6.1522,1.8066 2.0732,0.2944 4.0339,0.294 6.107,-0.002 z"
             style="fill:#fedd00;fill-rule:evenodd"
             id="path158" />
          <path
             d="m 216.4639,153.5186 c -0.0298,-1.4591 -0.1049,-2.53 -1.4004,-2.8819 -1.3269,-0.3604 -2.4304,0.608 -2.4304,1.8816 v 17.2506 c 0,1.3756 1.3419,2.3564 2.6992,1.7801 1.3237,-0.5621 1.1241,-2.1573 1.1241,-3.7376 0,-3.2214 0.009,-6.4441 -2e-4,-9.6653 -0.004,-1.2222 -0.187,-1.8268 1.6676,-3.1357 0.9366,-0.661 2.0705,-1.3502 3.6263,-1.2913 3.5209,0.1335 3.3621,3.1037 3.3621,6.2622 0,3.1894 -0.0863,6.496 -0.004,9.6702 0.0245,0.9404 0.2203,1.1869 0.7424,1.6394 0.4827,0.4183 1.1895,0.5339 1.8721,0.2918 1.4039,-0.498 1.2123,-2.0757 1.2123,-3.649 0,-3.2217 0.004,-6.4436 0,-9.6652 -0.002,-1.38 -0.2603,-1.8129 1.5765,-3.2238 0.8694,-0.6679 2.1112,-1.3319 3.591,-1.3319 4.2512,0 3.548,4.4895 3.548,8.1037 0,0.9793 -0.1165,8.0806 0.1125,8.7019 0.6173,1.6746 3.7109,1.7845 3.7109,-0.9942 V 156.678 c 0,-9.4515 -10.5302,-6.662 -12.7255,-2.6817 l -0.2043,-0.3232 c -1.1806,-2.2511 -2.2564,-3.357 -5.5749,-3.357 -1.3431,0 -2.7484,0.4801 -3.742,1.0326 -1.7512,0.9739 -1.7728,1.3828 -2.7638,2.1699 z"
             style="fill:#0064d2;fill-rule:evenodd"
             id="path160" />
          <path
             d="m 79.0289,159.9813 c 0.3516,-0.5073 0.5932,-0.7128 1.0328,-1.2316 0.3185,-0.3758 0.7134,-0.7946 1.0176,-1.1866 l 1.073,-1.2531 c 0.2078,-0.2364 0.3325,-0.3162 0.5337,-0.5644 0.2116,-0.2611 0.2721,-0.3669 0.5018,-0.6005 2.7169,-2.7634 0.0969,-5.1018 -1.8551,-4.792 -1.1042,0.1752 -1.9121,1.375 -2.4712,2.0551 -0.6821,0.8298 -1.4179,1.6039 -2.0711,2.4556 -0.2972,0.3875 -3.7028,4.5694 -4.1223,4.7198 v -12.6931 c 1e-4,-1.5027 0.1711,-2.5737 -0.6967,-3.5212 -1.5661,-1.7102 -4.6983,-0.8282 -4.749,1.9253 -0.0977,5.3072 0.0029,11.4751 0.0029,16.8889 0,1.6499 -0.3024,7.0566 0.3855,8.0598 0.6745,0.9836 1.776,1.4454 2.9822,1.1774 1.0232,-0.2273 1.8607,-1.1152 2.0263,-2.1455 0.3103,-1.9304 -0.4233,-3.016 0.4716,-3.7939 0.737,-0.6405 1.2289,-1.5978 2.1158,-2.1033 l 3.5454,5.2633 c 0.5136,0.7454 1.2466,2.0506 1.9426,2.4623 1.1301,0.6685 2.5434,0.4455 3.3054,-0.3444 0.7755,-0.8039 1.2922,-1.99 0.5569,-3.2733 z"
             style="fill:#0064d2;fill-rule:evenodd"
             id="path162" />
          <path
             d="m 90.9617,158.9719 c -0.0261,-1.3245 0.8711,-2.5894 1.5252,-3.2155 2.9251,-2.7998 8.5953,-0.8483 8.4749,3.2155 z m 0.042,3.7446 c 2.6829,-0.3947 12.4157,0.5262 13.9319,-0.3784 1.8242,-1.0884 1.346,-3.3773 0.6135,-5.4445 -1.2571,-3.5475 -3.987,-5.9639 -7.6724,-6.6283 -5.6236,-1.0138 -11.3068,2.4052 -12.3999,8.5153 -1.6284,9.1024 6.0745,14.8294 14.8922,12.451 1.6625,-0.4484 4.1771,-1.2529 3.8913,-3.2661 -0.1344,-0.9468 -0.8518,-1.5589 -1.7823,-1.7767 -1.054,-0.2468 -1.8045,0.3688 -2.6758,0.6766 -4.3442,1.535 -8.1046,-0.238 -8.7985,-4.1489 z"
             style="fill:#0064d2;fill-rule:evenodd"
             id="path164" />
          <path
             d="m 199.0209,153.8351 c 4.1743,-0.8629 7.0642,2.4685 7.5095,6.0656 0.5287,4.2712 -1.6991,7.9252 -5.1692,8.5562 -8.696,1.5815 -10.5418,-12.9265 -2.3403,-14.6218 z m -9.2065,7.0027 c 0,6.2781 3.9845,11.1042 9.9098,11.1042 h 0.9788 c 5.8135,0 9.9366,-4.9593 9.9008,-10.86 -0.0882,-14.5164 -20.7894,-14.1245 -20.7894,-0.2442 z"
             style="fill:#0064d2;fill-rule:evenodd"
             id="path166" />
          <path
             d="m 45.6192,150.6097 c -0.8433,0.0442 -3.6695,-0.2857 -3.6286,2.3986 0.0405,2.6495 2.6939,2.3484 3.6286,2.3974 0.3416,2.1001 -0.2493,9.1805 0.1089,11.8967 0.4721,3.5796 3.4287,4.8919 7.3529,4.3565 1.7304,-0.2361 3.2004,-1.1098 2.6509,-3.1242 -0.6453,-2.3655 -2.715,-1.0889 -3.9113,-2.0804 -1.1217,-0.9298 -0.7141,-3.5738 -0.7141,-5.2495 0,-1.4793 -0.168,-4.5032 0.0428,-5.7991 1.0628,-0.0557 4.3931,0.536 4.3786,-2.3977 -0.0144,-2.9124 -3.2238,-2.3378 -4.3786,-2.3983 -0.1977,-1.2154 0.1712,-2.9792 -0.1998,-4.0877 -0.8253,-2.4664 -4.4126,-2.2553 -5.149,-0.0212 -0.349,1.059 0.0119,2.9212 -0.1813,4.1089 z"
             style="fill:#0064d2;fill-rule:evenodd"
             id="path168" />
          <path
             d="m 109.4829,150.6097 c -0.8264,0.0433 -3.6456,-0.2808 -3.601,2.398 0.0442,2.6499 2.6463,2.348 3.601,2.398 0.3359,2.0648 -0.2401,8.9886 0.127,11.8793 0.457,3.5983 3.4139,4.8962 7.3349,4.3761 1.7453,-0.2315 3.231,-1.1088 2.6689,-3.1418 -0.6468,-2.3395 -2.6148,-1.0685 -3.9351,-2.0578 -1.0885,-0.8157 -0.7083,-3.7767 -0.7083,-5.2567 0,-1.4793 -0.168,-4.5032 0.0428,-5.7991 1.1214,-0.0588 4.4079,0.5194 4.3941,-2.3981 -0.0139,-2.9364 -3.3132,-2.3412 -4.3941,-2.3979 -0.1932,-1.1877 0.1677,-3.0499 -0.1813,-4.1089 -0.758,-2.2995 -4.362,-2.3813 -5.1483,0.0212 -0.3683,1.1255 -0.002,2.8682 -0.2006,4.0877 z"
             style="fill:#0064d2;fill-rule:evenodd"
             id="path170" />
          <path
             d="m 171.247,160.5931 v 0.9787 c 0,5.6071 4.3231,10.3702 9.8809,10.3702 2.0749,0 3.2128,-0.0365 5.1253,-0.9597 0.6458,-0.3116 1.0176,-0.5809 1.5531,-1.0161 0.4666,-0.3792 1.0379,-0.6641 1.0883,-1.5395 0.0956,-1.6618 -1.8424,-2.2769 -3.0967,-1.3262 -1.4085,1.0675 -2.1009,1.4449 -4.1806,1.4449 -8.4454,0 -8.7815,-14.8326 0.2447,-14.8326 3.8421,0 3.9188,2.545 5.8623,1.8577 1.4933,-0.5281 1.9617,-2.535 -1.4625,-4.2725 -5.7882,-2.937 -15.0148,0.6641 -15.0148,9.2951 z"
             style="fill:#0064d2;fill-rule:evenodd"
             id="path172" />
          <path
             d="m 58.2104,169.4018 c 0.324,1.5826 2.4249,2.8046 4.0955,1.6884 1.7099,-1.1424 1.2797,-2.9738 1.2797,-5.3587 0,-1.9826 0.1255,-12.1558 -0.0421,-13.2014 -0.2778,-1.7333 -2.3548,-2.8379 -4.1732,-1.7503 -1.6192,0.9685 -1.2292,3.2826 -1.2292,5.4089 0,1.919 -0.1328,12.2255 0.0693,13.2131 z"
             style="fill:#0064d2;fill-rule:evenodd"
             id="path174" />
        </g>
      </g>
    </g>
  </g>
</svg>
