<?xml version="1.0" encoding="utf-8"?>
<!-- Generator: Adobe Illustrator 25.4.1, SVG Export Plug-In . SVG Version: 6.00 Build 0)  -->
<svg version="1.0" id="katman_1" xmlns="http://www.w3.org/2000/svg" xmlns:xlink="http://www.w3.org/1999/xlink" x="0px" y="0px"
	 viewBox="0 0 172.9 119.5" style="enable-background:new 0 0 172.9 119.5;" xml:space="preserve">
<style type="text/css">
	.st0{fill-rule:evenodd;clip-rule:evenodd;fill:#1BA0E2;}
	.st1{fill-rule:evenodd;clip-rule:evenodd;fill:#0D7FCC;}
	.st2{fill-rule:evenodd;clip-rule:evenodd;fill:#434343;}
</style>
<g id="Train_Booking">
	<g id="Train_Booking-Form_Login-Success" transform="translate(-174.000000, -10.000000)">
		<g id="Logo-_x2F_-Normal-Text-Copy-2" transform="translate(174.000000, 10.000000)">
			<g id="Icon-Blue-Copy" transform="translate(106.348506, 0.000000)">
				<path id="Path-7" class="st0" d="M34.8,45.7c5.3-3.4,11.9-4,11.9-4s-7,8-8.8,11.7c-0.5,1.6,0.6,2.9,0.6,2.9S35.5,52.9,34.8,45.7
					z"/>
				<path id="Path-7-Copy" class="st1" d="M37.1,44.5c-0.8,0.4-1.5,0.8-2.3,1.3c0.3,3.6,1.3,6.3,2.2,8.1c0.5,0.8,0.9,1.5,1.2,2
					c-0.2-0.3-0.3-0.8-0.4-1.3C37.4,52.8,37,49.8,37.1,44.5z"/>
				<path id="Path-6" class="st0" d="M30.1,48.9c0,0-0.3-1.2-0.5-1.6c-0.3-0.9-0.7-1.9-0.7-3.6c0-2.3,3.8-4.7,6.2-5.4
					c-0.6,8.2,0.3,10.7,1.1,13.5c2,6.7,6.6,7.7,7.1,8.1c-1.2-0.3-0.5,0.3-0.5,0.3s-1.9-1.3-5.6-2.4c-3.8-1.1-6.7-1.2-8.5-2.3
					c-1.4-1-1.4-1.9-2.1-2.5c-2.2-1.9-7.6-2.7-7.6-2.7l4.7,0.8c0,0,0.6,0,1.4-0.3c0.2,0,0.7-0.6,1.8-0.2c0.5,0.2,0.3,0.3,1.7,0.7
					C30.3,51.9,30.1,48.9,30.1,48.9z"/>
			</g>
			<path id="traveloka" class="st2" d="M20.8,63.1c0,4.8,3.7,5.4,5.5,5.4c0.6,0,1-0.1,1-0.1v-2.4c0,0-0.3,0.1-0.7,0.1
				c-1.1,0-3.1-0.4-3.1-3.2v-6.4H27v-2.2h-3.5V50h-2.7v4.2h-2v2.2h1.9V63.1z M29.8,68.3h2.8v-5.9c0-0.9,0.1-1.8,0.3-2.6
				c0.7-2.1,2.3-3.4,4-3.4c0.4,0,0.8,0.1,0.8,0.1v-2.7c0,0-0.3-0.1-0.7-0.1c-2.2,0-3.9,1.6-4.5,3.8h-0.1c0,0,0.1-0.5,0.1-1.1v-2.5
				h-2.7V68.3z M38.7,64.3c0,2.9,2.4,4.4,4.9,4.4c3.4,0,4.6-2.8,4.6-2.8h0.1c0,0-0.1,0.5-0.1,1.1v1.4h2.6v-9.1c0-3.6-2-5.6-5.7-5.6
				c-3.3,0-5.4,1.7-5.4,1.7l1.1,2c0,0,1.8-1.4,4-1.4c1.8,0,3.2,0.8,3.2,3.2v0.3h-0.6C44.9,59.3,38.7,59.5,38.7,64.3L38.7,64.3z
				 M41.5,64.1c0-2.6,3.7-2.7,5.8-2.7H48v0.5c0,2.1-1.5,4.6-3.8,4.6C42.4,66.4,41.5,65.3,41.5,64.1L41.5,64.1z M57.7,68.3h3.2
				l5.3-14.4h-2.9l-3.5,9.7c-0.3,0.8-0.5,2-0.5,2h-0.1c0,0-0.2-1.2-0.5-2l-3.5-9.7h-2.9L57.7,68.3z M66.9,61.1
				c0,4.3,3.1,7.5,7.6,7.5c3.4,0,5.6-2,5.6-2l-1.1-2c0,0-1.8,1.7-4.3,1.7c-2.6,0-4.8-1.6-4.9-4.7h10.5c0,0,0.1-0.8,0.1-1.2
				c0-3.7-2.2-6.7-6.2-6.7C70,53.6,66.9,56.5,66.9,61.1L66.9,61.1z M69.8,59.4c0.4-2.4,2.1-3.7,4.2-3.7c1.8,0,3.4,1.2,3.5,3.7H69.8z
				 M82.8,64.4c0,3.6,2.3,4,3.9,4c0.5,0,0.9-0.1,0.9-0.1v-2.4c0,0-0.2,0-0.5,0c-0.9,0-1.5-0.3-1.5-2V48.2h-2.8V64.4z M88.9,61.1
				c0,4.4,3.5,7.6,7.8,7.6c4.3,0,7.8-3.2,7.8-7.6c0-4.3-3.5-7.5-7.8-7.5C92.3,53.6,88.9,56.7,88.9,61.1L88.9,61.1z M91.7,61.1
				c0-3,2.2-5.1,4.9-5.1c2.7,0,4.9,2.1,4.9,5.1c0,3-2.2,5.2-4.9,5.2C93.9,66.3,91.7,64.1,91.7,61.1L91.7,61.1z M107.1,68.3h2.8v-6.8
				h2.1l4.3,6.8h3.2l-5.3-8v-0.1l4.8-6.3h-3.1l-3.9,5.3h-2v-11h-2.8V68.3z M120.2,64.3c0,2.9,2.4,4.4,4.9,4.4c3.4,0,4.6-2.8,4.6-2.8
				h0.1c0,0-0.1,0.5-0.1,1.1v1.4h2.6v-9.1c0-3.6-2-5.6-5.7-5.6c-3.3,0-5.4,1.7-5.4,1.7l1.1,2c0,0,1.8-1.4,4-1.4
				c1.8,0,3.2,0.8,3.2,3.2v0.3h-0.6C126.4,59.3,120.2,59.5,120.2,64.3L120.2,64.3z M123,64.1c0-2.6,3.7-2.7,5.8-2.7h0.7v0.5
				c0,2.1-1.5,4.6-3.8,4.6C123.9,66.4,123,65.3,123,64.1L123,64.1z"/>
		</g>
	</g>
</g>
</svg>
